<?xml version="1.0" encoding="UTF-8"?>
<svg id="Layer_1" xmlns="http://www.w3.org/2000/svg" version="1.1" viewBox="0 0 203.75 37">
  <!-- Generator: Adobe Illustrator 29.3.1, SVG Export Plug-In . SVG Version: 2.1.0 Build 151)  -->
  <defs>
    <style>
      .st0 {
        fill: #009c9c;
      }

      .st1 {
        fill: #f26f21;
      }
    </style>
  </defs>
  <g>
    <g>
      <path class="st0" d="M21.33,12.72c1.85-2.48,4.85-4.03,8.17-3.89,3.76.16,6.93,2.45,8.39,5.66l7.77-1.62c-2.25-6.64-8.4-11.55-15.83-11.87-7.23-.31-13.62,3.81-16.55,9.95l8.04,1.75Z"/>
      <path class="st0" d="M28.67,28.16c-4.64-.2-8.37-3.63-9.12-8.02l-7.94-.72c.46,8.91,7.63,16.18,16.73,16.57,7.83.33,14.67-4.53,17.2-11.52h-8.84c-1.86,2.37-4.79,3.84-8.03,3.7Z"/>
    </g>
    <polygon class="st1" points="1 9.1 6.04 18.12 25.4 19.87 23.52 22.54 50.63 22.54 32.86 17.89 34.15 16.33 1 9.1"/>
  </g>
  <g>
    <path class="st0" d="M64.79,20.09h-7.62v3.13h8.5l-.55,3.63h-12.67V10.14h12.66v3.63h-7.94v2.69h7.62v3.63Z"/>
    <path class="st0" d="M67.9,26.86V10.14h5.86c1.76,3.77,4.31,8.85,5.01,10.91h.08c-.19-1.74-.23-4.69-.23-7.36v-3.56h4.47v16.72h-5.59c-1.42-3.03-4.44-9.3-5.23-11.51h-.07c.16,1.57.17,4.81.17,7.75v3.76h-4.48Z"/>
    <path class="st0" d="M98.87,20.09h-7.62v3.13h8.5l-.55,3.63h-12.67V10.14h12.65v3.63h-7.94v2.69h7.62v3.63Z"/>
    <path class="st0" d="M117.38,21.36c-.61,3.49-3.18,5.81-7.77,5.81-5.48,0-8.12-3.7-8.12-8.55s2.61-8.79,8.36-8.79c4.91,0,7.15,2.86,7.48,5.75h-4.86c-.22-1.21-.92-2.31-2.73-2.31-2.38,0-3.19,2.26-3.19,5.18,0,2.65.68,5.27,3.25,5.27,1.95,0,2.49-1.41,2.7-2.36h4.89Z"/>
    <path class="st0" d="M136.18,18.49c0,4.73-2.85,8.69-8.58,8.69s-8.34-3.93-8.34-8.66,2.98-8.68,8.59-8.68c5.27,0,8.32,3.66,8.32,8.66ZM124.31,18.44c0,3.07,1.02,5.21,3.44,5.21,2.55,0,3.39-2.27,3.39-5.12,0-3.05-.89-5.17-3.45-5.17-2.38,0-3.38,1.97-3.38,5.08Z"/>
    <path class="st0" d="M142.41,26.86l-5.72-16.72h5.21l2.06,7.18c.65,2.23,1.04,3.78,1.41,5.64h.07c.32-1.73.75-3.28,1.44-5.59l2.13-7.23h5.02l-5.85,16.72h-5.78Z"/>
    <path class="st0" d="M168.05,20.09h-7.62v3.13h8.5l-.55,3.63h-12.67V10.14h12.65v3.63h-7.94v2.69h7.62v3.63Z"/>
    <path class="st0" d="M175.91,20.54v6.32h-4.76V10.14h8.28c3.94,0,5.84,2.11,5.84,4.63,0,2.31-1.35,3.49-2.51,3.97,1.05.37,2.18,1.48,2.18,4.32v.7c0,1.04.03,2.39.22,3.11h-4.67c-.28-.72-.35-1.93-.35-3.65v-.43c0-1.44-.34-2.23-2.51-2.23h-1.73ZM175.91,17.13h2.27c1.63,0,2.23-.68,2.23-1.8s-.71-1.77-2.2-1.77h-2.29v3.57Z"/>
    <path class="st0" d="M191.89,26.86v-5.79c0-.22-.02-.38-.17-.63l-5.72-10.29h5.53c1.07,2.36,2.27,5.07,3.04,6.98.68-1.83,2.09-4.83,3.07-6.98h5.11l-5.8,10.27c-.08.14-.15.29-.15.63v5.82h-4.91Z"/>
  </g>
</svg>